<?xml version="1.0" ?><svg style="enable-background:new 0 0 64 64;" version="1.1" viewBox="0 0 64 64" xml:space="preserve" xmlns="http://www.w3.org/2000/svg" xmlns:xlink="http://www.w3.org/1999/xlink"><style type="text/css">
	.st0{fill:#75C6A8;}
	.st1{fill:#57B5B5;}
	.st2{fill:#263047;}
	.st3{fill:#DB7158;}
	.st4{fill:none;stroke:#263047;stroke-width:0.5;stroke-linecap:round;stroke-miterlimit:10;}
	.st5{fill:none;stroke:#EA8B78;stroke-width:2;stroke-linecap:round;stroke-miterlimit:10;}
	.st6{fill:#E89715;}
	.st7{fill:none;stroke:#263047;stroke-linecap:round;stroke-miterlimit:10;}
	.st8{fill:none;stroke:#263047;stroke-width:0.5;stroke-linecap:round;stroke-linejoin:round;stroke-miterlimit:10;}
	.st9{fill:#456BA8;}
	.st10{fill:#9EC6B8;}
	.st11{fill:#C14F46;}
	.st12{fill:#BFD8D0;}
	.st13{fill:#E57417;}
	.st14{fill:none;stroke:#9EC6B8;stroke-width:0.75;stroke-linecap:round;stroke-linejoin:round;stroke-miterlimit:10;}
	.st15{fill:#FFFFFF;}
	.st16{fill:#D8EAE3;}
	.st17{fill:none;stroke:#DB7158;stroke-linecap:round;stroke-miterlimit:10;}
	.st18{fill:none;stroke:#BFD8D0;stroke-width:0.5;stroke-linecap:round;stroke-miterlimit:10;}
	.st19{fill:none;stroke:#263047;stroke-width:0.5;stroke-linecap:round;stroke-miterlimit:10;stroke-dasharray:1.0458,1.0458;}
	.st20{fill:#75C6A8;stroke:#75C6A8;stroke-width:0.25;stroke-linejoin:round;stroke-miterlimit:10;}
	.st21{fill:#EF8873;}
	.st22{fill:none;stroke:#263047;stroke-width:0.5;stroke-miterlimit:10;}
	.st23{fill:none;stroke:#263047;stroke-width:0.5;stroke-linecap:round;stroke-miterlimit:10;stroke-dasharray:1.8125,1.8125;}
	.st24{fill:none;stroke:#263047;stroke-linecap:round;stroke-miterlimit:10;stroke-dasharray:1.912,1.912;}
	.st25{fill:none;}
	.st26{fill:none;stroke:#EA8B78;stroke-linecap:round;stroke-miterlimit:10;}
	.st27{fill:none;stroke:#263047;stroke-width:3;stroke-miterlimit:10;}
	.st28{fill:none;stroke:#BFD8D0;stroke-miterlimit:10;}
	.st29{fill:none;stroke:#BFD8D0;stroke-width:0.5;stroke-miterlimit:10;}
	.st30{fill:none;stroke:#9EC6B8;stroke-width:0.5;stroke-miterlimit:10;}
	.st31{fill:none;stroke:#75C6A8;stroke-width:0.5;stroke-miterlimit:10;}
	.st32{fill:none;stroke:#F9F9F9;stroke-width:0.5;stroke-linecap:round;stroke-linejoin:round;stroke-miterlimit:10;}
	.st33{fill:none;stroke:#9EC6B8;stroke-width:0.5;stroke-linecap:round;stroke-linejoin:round;stroke-miterlimit:10;}
	.st34{fill:#EA8B78;}
	.st35{fill:none;stroke:#EA8B78;stroke-width:0.75;stroke-linecap:round;stroke-miterlimit:10;}
</style><g id="Layer_1"/><g id="artworks"><g><path class="st12" d="M39.7,53.6l15-15c1-1,1-2.6,0-3.5l-7.6-7.6c-1-1-2.6-1-3.5,0l-15,15c-3.2,3.2-4.4,7.8-3.3,12.2l0,0    c0.3,1.1,1.1,1.9,2.2,2.2l0,0C31.8,58,36.5,56.8,39.7,53.6z"/><g><path class="st10" d="M55.8,30.5l-4.2-4.2c-0.4-0.4-0.4-1.1,0-1.5l0.6-0.6l5.7,5.7l-0.6,0.6C56.9,30.9,56.2,30.9,55.8,30.5z"/><path class="st12" d="M58.4,30.9l-7.2-7.2c-0.5-0.5-0.5-1.3,0-1.8l0.4-0.4c0.5-0.5,1.3-0.5,1.8,0l7.2,7.2c0.5,0.5,0.5,1.3,0,1.8     l-0.4,0.4C59.7,31.4,58.9,31.4,58.4,30.9z"/><line class="st8" x1="58.4" x2="51.2" y1="30.9" y2="23.8"/></g><g><path class="st0" d="M45,46.6c-0.5-0.5-1-1.1-1.3-1.6c-0.4-0.8-1.1-1.4-1.8-1.8c-0.6-0.3-1.1-0.7-1.6-1.3c-0.5-0.5-1-1.1-1.3-1.6     c-0.4-0.8-1.1-1.4-1.8-1.8c-0.6-0.3-1.1-0.7-1.6-1.3c-0.3-0.3-0.5-0.6-0.8-0.9l-6.2,6.2c-3.2,3.2-4.4,7.8-3.3,12.2     c0.3,1.1,1.1,1.9,2.2,2.2c4.4,1.2,9-0.1,12.2-3.3l6.2-6.2C45.6,47.1,45.3,46.9,45,46.6z"/></g><path class="st8" d="M28.6,42.5c-3.2,3.2-4.4,7.8-3.3,12.2l0,0c0.3,1.1,1.1,1.9,2.2,2.2l0,0c4.4,1.2,9-0.1,12.2-3.3l15-15    c1-1,1-2.6,0-3.5l-7.6-7.6c-1-1-2.6-1-3.5,0"/><line class="st8" x1="53.7" x2="50.9" y1="28.4" y2="31.3"/><line class="st8" x1="26.1" x2="21.2" y1="56.1" y2="61"/><line class="st8" x1="46.4" x2="27.2" y1="35.8" y2="55"/><g><line class="st32" x1="45.2" x2="44.1" y1="30.9" y2="29.8"/><line class="st32" x1="42.8" x2="42.3" y1="32.2" y2="31.6"/><line class="st32" x1="41.4" x2="40.3" y1="34.7" y2="33.6"/><line class="st32" x1="39" x2="38.4" y1="36" y2="35.4"/><line class="st32" x1="37.6" x2="36.5" y1="38.5" y2="37.4"/><line class="st32" x1="35.2" x2="34.6" y1="39.8" y2="39.2"/><line class="st32" x1="33.8" x2="32.7" y1="42.3" y2="41.2"/><line class="st32" x1="31.4" x2="30.8" y1="43.6" y2="43"/></g></g><path class="st3" d="M25.8,31.5l5.9,1.1c0.6,0.1,1.1-0.4,1-1l-1.1-5.9h-5.7V31.5z"/><path class="st11" d="M31.7,27c-0.4,1.9-1.1,3.6-2,5.2l-4-0.8v-5.7h5.7L31.7,27z"/><path class="st11" d="M31.7,27c-0.4,1.9-1.1,3.6-2,5.2l-4-0.8v-5.7h5.7L31.7,27z"/><circle class="st3" cx="18.9" cy="18.9" r="15.9"/><g><g><circle class="st2" cx="18.9" cy="18.9" r="5.2"/><g><path class="st2" d="M27.3,20.5c0.6,0,1-0.7,1-1.6c0-0.9-0.4-1.6-1-1.6c-0.1,0-0.3,0-0.4,0.1c-0.7,0.5-1.5,0.6-2.4,0.6h-2v1.7h2      c0.8,0,1.7,0.2,2.4,0.6C27.1,20.5,27.2,20.5,27.3,20.5z"/><path class="st2" d="M10.5,17.3c-0.6,0-1,0.7-1,1.6c0,0.9,0.4,1.6,1,1.6c0.1,0,0.3,0,0.4-0.1c0.7-0.5,1.5-0.6,2.4-0.6h2v-1.7h-2      c-0.8,0-1.7-0.2-2.4-0.6C10.8,17.4,10.7,17.3,10.5,17.3z"/></g><g><path class="st2" d="M26.3,16c0.3-0.2,0.4-0.8,0-1.3c-0.3-0.5-0.8-0.8-1.2-0.6c-0.1,0-0.1,0.1-0.2,0.2c-0.3,0.5-0.7,0.9-1.2,1.2      l-1.3,0.7l0.6,1.1l1.3-0.7c0.5-0.3,1.1-0.5,1.7-0.5C26.1,16.1,26.2,16,26.3,16z"/><path class="st2" d="M11.5,21.9c-0.3,0.2-0.4,0.8,0,1.3c0.3,0.5,0.8,0.8,1.2,0.6c0.1,0,0.1-0.1,0.2-0.2c0.3-0.5,0.7-0.9,1.2-1.2      l1.3-0.7l-0.6-1.1l-1.3,0.7c-0.5,0.3-1.1,0.5-1.7,0.5C11.7,21.8,11.6,21.8,11.5,21.9z"/></g><g><path class="st2" d="M20.1,11.1c0-0.4-0.5-0.7-1.1-0.7c-0.6,0-1.1,0.3-1.1,0.7c0,0.1,0,0.2,0.1,0.3c0.3,0.5,0.4,1.1,0.4,1.7v1.4      h1.2V13c0-0.6,0.1-1.2,0.4-1.7C20,11.2,20.1,11.2,20.1,11.1z"/><path class="st2" d="M17.8,26.8c0,0.4,0.5,0.7,1.1,0.7c0.6,0,1.1-0.3,1.1-0.7c0-0.1,0-0.2-0.1-0.3c-0.3-0.5-0.4-1.1-0.4-1.7      v-1.4h-1.2v1.4c0,0.6-0.1,1.2-0.4,1.7C17.8,26.6,17.8,26.7,17.8,26.8z"/></g><g><path class="st2" d="M12.7,14c-0.3-0.2-0.9,0.1-1.2,0.6c-0.3,0.5-0.3,1.1,0,1.3c0.1,0,0.2,0.1,0.3,0.1c0.6,0,1.2,0.2,1.7,0.5      l1.3,0.7l0.6-1.1l-1.3-0.7c-0.5-0.3-1-0.7-1.2-1.2C12.8,14.1,12.8,14.1,12.7,14z"/><path class="st2" d="M25.2,23.9c0.3,0.2,0.9-0.1,1.2-0.6c0.3-0.5,0.3-1.1,0-1.3c-0.1,0-0.2-0.1-0.3-0.1c-0.6,0-1.2-0.2-1.7-0.5      l-1.3-0.7l-0.6,1.1l1.3,0.7c0.5,0.3,1,0.7,1.2,1.2C25,23.7,25.1,23.8,25.2,23.9z"/></g><g><path class="st2" d="M24.5,12.5c0.3-0.5-0.1-1.2-0.9-1.7c-0.8-0.4-1.6-0.4-1.9,0.1c-0.1,0.1-0.1,0.2-0.1,0.4      c0.1,0.8-0.2,1.6-0.6,2.4l-1,1.7l1.5,0.9l1-1.7c0.4-0.7,1-1.4,1.7-1.7C24.3,12.7,24.4,12.6,24.5,12.5z"/><path class="st2" d="M13.4,25.4c-0.3,0.5,0.1,1.2,0.9,1.7c0.8,0.4,1.6,0.4,1.9-0.1c0.1-0.1,0.1-0.2,0.1-0.4      c-0.1-0.8,0.2-1.6,0.6-2.4l1-1.7l-1.5-0.9l-1,1.7c-0.4,0.7-1,1.4-1.7,1.7C13.5,25.2,13.4,25.3,13.4,25.4z"/></g><g><path class="st2" d="M16.1,10.9c-0.3-0.5-1.1-0.5-1.9-0.1c-0.8,0.4-1.2,1.2-0.9,1.7c0.1,0.1,0.2,0.2,0.3,0.3      c0.7,0.4,1.3,1,1.7,1.7l1,1.7l1.5-0.9l-1-1.7c-0.4-0.7-0.7-1.5-0.6-2.4C16.2,11.1,16.2,11,16.1,10.9z"/><path class="st2" d="M21.7,27c0.3,0.5,1.1,0.5,1.9,0.1c0.8-0.4,1.2-1.2,0.9-1.7c-0.1-0.1-0.2-0.2-0.3-0.3      c-0.7-0.4-1.3-1-1.7-1.7l-1-1.7L20,22.5l1,1.7c0.4,0.7,0.7,1.5,0.6,2.4C21.7,26.7,21.7,26.9,21.7,27z"/></g><g><path class="st9" d="M20.9,18.1l1.4-0.6c0.2,0.4,0.3,0.9,0.3,1.4h-1.5C21.1,18.6,21,18.4,20.9,18.1z"/></g><g><path class="st9" d="M18.9,16.8v-1.5c1,0,1.9,0.4,2.6,1.1l-1.1,1C20.1,17,19.5,16.8,18.9,16.8z"/></g></g></g><g><path class="st15" d="M16.5,21.7l-0.3-0.3c-0.3-0.3-0.3-0.9,0-1.3l3.9-3.9c0.3-0.3,0.9-0.3,1.3,0l0.3,0.3c0.3,0.3,0.3,0.9,0,1.3    l-3.9,3.9C17.4,22,16.8,22,16.5,21.7z"/><path class="st15" d="M16.2,16.5l0.3-0.3c0.3-0.3,0.9-0.3,1.3,0l3.9,3.9c0.3,0.3,0.3,0.9,0,1.3l-0.3,0.3c-0.3,0.3-0.9,0.3-1.3,0    l-3.9-3.9C15.9,17.4,15.9,16.8,16.2,16.5z"/></g></g></svg>